<?xml version="1.0" encoding="utf-8"?><svg viewBox="0 0 100 100" xmlns="http://www.w3.org/2000/svg" width="293px" height="293px" xmlns:xlink="http://www.w3.org/1999/xlink" style="width:100%;height:100%;background-size:initial;background-repeat-y:initial;background-repeat-x:initial;background-position-y:initial;background-position-x:initial;background-origin:initial;background-image:initial;background-color:rgb(255, 255, 255);background-clip:initial;background-attachment:initial;animation-play-state:paused" ><g class="ldl-scale" style="transform-origin:50% 50%;transform:rotate(0deg) scale(0.8, 0.8);animation-play-state:paused" ><path fill="#abbd81" d="M28.408 32.308c.351-.07.703-.137 1.055-.193.279-.044.559-.081.839-.116a27.888 27.888 0 0 1 1.892-.175c.344-.02.688-.031 1.033-.037.172-.003.344-.019.516-.019.104 0 .208.011.312.012.443.005.886.026 1.328.052.222.013.444.019.665.038.648.055 1.294.128 1.937.228.134.021.266.052.4.075.519.089 1.035.188 1.548.306.238.055.473.12.709.181a25.147 25.147 0 0 1 1.971.587c.395.134.787.28 1.177.432.236.093.473.183.707.282.436.185.865.386 1.292.594.175.085.353.162.527.251.587.301 1.164.624 1.731.968.159.096.311.204.468.304.413.263.821.532 1.221.818.064.046.132.085.195.131l.026-.02.025.02c.08-.055.164-.103.244-.157.186-.125.376-.244.564-.364a27.292 27.292 0 0 1 1.505-.89c.297-.163.596-.318.897-.469.212-.106.423-.212.637-.312.306-.144.616-.278.926-.409.212-.09.423-.183.637-.268.337-.133.678-.254 1.02-.373.191-.067.379-.14.571-.202a27.482 27.482 0 0 1 1.588-.467c.129-.034.26-.058.39-.09a28.1 28.1 0 0 1 1.248-.281c.221-.043.443-.076.665-.114.33-.057.661-.113.993-.157.242-.032.485-.056.727-.082.316-.034.631-.065.948-.088.249-.018.498-.03.747-.042a26.912 26.912 0 0 1 2.653.011c.239.012.479.023.718.042.343.027.684.065 1.026.105.217.025.435.045.651.076.423.059.845.134 1.266.214.133.025.267.043.4.07a27.72 27.72 0 0 1 1.647.391c.156.042.31.094.466.139.332.096.665.188.994.297.038-.558.058-1.117.058-1.674 0-13.308-10.827-24.135-24.135-24.135S25.9 18.629 25.9 31.937c0 .324.007.648.021.975.191-.057.385-.097.577-.15.367-.101.735-.202 1.105-.287.267-.062.536-.113.805-.167z" style="fill:rgb(171, 189, 129);animation-play-state:paused" ></path>
<path fill="#f8b26a" d="M45.602 78.501a27.395 27.395 0 0 1-1.126-1.264c-.081-.097-.155-.199-.235-.297a27.013 27.013 0 0 1-.809-1.039c-.12-.164-.232-.332-.349-.498a26.72 26.72 0 0 1-.609-.898c-.12-.187-.235-.378-.35-.568a27.971 27.971 0 0 1-.519-.884 26.995 26.995 0 0 1-.783-1.509c-.098-.205-.196-.409-.289-.616a26.808 26.808 0 0 1-.406-.955c-.081-.2-.165-.399-.242-.601a28.412 28.412 0 0 1-.373-1.062c-.059-.176-.123-.351-.178-.529-.153-.49-.291-.985-.416-1.484-.011-.045-.026-.09-.037-.135a27.161 27.161 0 0 1-.35-1.655c-.03-.164-.05-.329-.077-.494a27.467 27.467 0 0 1-.171-1.18c-.025-.208-.041-.417-.061-.626a27.31 27.31 0 0 1-.084-1.069c-.012-.224-.019-.449-.026-.674a25.765 25.765 0 0 1 0-1.728c.011-.35.031-.699.056-1.049.016-.225.031-.449.052-.673.009-.096.012-.191.022-.287l-.03-.012.005-.032c-.086-.041-.169-.089-.255-.131-.202-.099-.401-.204-.6-.308a25.817 25.817 0 0 1-2.4-1.414c-.185-.122-.369-.243-.55-.369-.299-.208-.59-.424-.88-.643-.163-.123-.328-.243-.487-.37-.32-.253-.63-.517-.937-.783-.119-.103-.242-.201-.358-.306a27.776 27.776 0 0 1-1.23-1.171l-.082-.088a27.404 27.404 0 0 1-1.06-1.149c-.119-.137-.231-.279-.347-.418a27.467 27.467 0 0 1-.717-.886c-.13-.17-.255-.343-.381-.516a26.819 26.819 0 0 1-.604-.854 26.16 26.16 0 0 1-.37-.566 26.486 26.486 0 0 1-1.354-2.367c-.101-.199-.204-.397-.301-.599a26.65 26.65 0 0 1-.444-.99c-.08-.186-.165-.37-.241-.559-.167-.413-.32-.832-.467-1.254-.039-.113-.085-.223-.123-.336a27.393 27.393 0 0 1-.486-1.626c-.042-.158-.074-.319-.114-.479-.082-.334-.169-.667-.239-1.005-.501.246-.996.509-1.479.788-5.583 3.224-9.576 8.428-11.245 14.655s-.812 12.731 2.411 18.313c6.654 11.524 21.443 15.486 32.968 8.835.28-.162.558-.33.834-.507-.251-.236-.488-.484-.728-.729-.115-.118-.236-.23-.349-.35z" style="fill:rgb(248, 178, 106);animation-play-state:paused" ></path>
<path fill="#e0e0e0" d="M39.044 52.519a24.25 24.25 0 0 1 .752-2.369c.189-.512.395-1.017.615-1.518.095-.215.184-.432.284-.646.328-.697.677-1.385 1.065-2.057.421-.73.88-1.429 1.36-2.11.152-.216.316-.422.474-.633a27.056 27.056 0 0 1 1.662-2.017 26.7 26.7 0 0 1 1.198-1.229c.192-.186.378-.376.576-.556.075-.069.143-.144.219-.212a27.39 27.39 0 0 0-.62-.404c-.149-.094-.296-.192-.447-.282-.386-.231-.777-.45-1.174-.657-.042-.022-.082-.047-.125-.069a24.31 24.31 0 0 0-1.335-.637c-.145-.064-.294-.121-.44-.182-.31-.13-.621-.257-.935-.373-.176-.065-.353-.124-.53-.185a23.148 23.148 0 0 0-2.881-.801c-.31-.066-.621-.122-.933-.176-.173-.03-.345-.062-.518-.088a24.75 24.75 0 0 0-1.086-.133c-.125-.013-.25-.031-.375-.042-.494-.043-.99-.072-1.487-.085h-.151a23.38 23.38 0 0 0-1.324.01c-.155.006-.31.018-.465.027-.338.019-.675.041-1.012.074-.181.018-.361.041-.542.062a21.283 21.283 0 0 0-1.5.228c-.306.057-.612.121-.917.189-.186.042-.372.084-.558.13a23.65 23.65 0 0 0-.937.26c-.171.05-.342.097-.513.151-.049.015-.096.035-.145.051.009.051.015.104.025.155.033.175.073.347.11.521.067.317.136.634.216.947.048.19.101.377.154.565a23.902 23.902 0 0 0 .452 1.445c.1.287.207.571.318.853.071.181.141.362.216.541.124.296.258.587.393.876.074.157.143.317.22.472.179.363.37.72.568 1.073.042.076.08.154.124.23.243.425.501.842.77 1.251.08.123.168.241.25.362.194.284.391.567.597.843.111.149.229.294.343.441.189.241.38.48.577.713a27.713 27.713 0 0 0 1.413 1.531c.214.213.435.421.657.626.142.131.282.263.427.39.246.216.5.424.755.631.129.105.255.214.387.316.387.3.782.591 1.188.868.056.038.115.072.172.11.355.238.715.468 1.083.687.159.095.324.182.486.273.208.117.417.231.629.343.016-.067.038-.131.054-.198.047-.196.108-.39.161-.586z" style="fill:rgb(224, 224, 224);animation-play-state:paused" ></path>
<path fill="#e15b64" d="M75.788 41.351c-.041.112-.089.22-.132.331-.159.417-.324.831-.503 1.238-.082.187-.172.369-.258.553-.152.326-.306.652-.47.971-.104.201-.213.398-.322.597a26.27 26.27 0 0 1-1.411 2.308c-.132.194-.265.386-.401.576-.197.273-.4.54-.607.806-.138.178-.275.358-.417.532-.228.279-.466.551-.705.821-.133.15-.261.304-.397.451-.323.35-.658.689-.999 1.022-.06.059-.117.122-.177.18-.402.385-.817.757-1.243 1.117-.146.124-.298.239-.447.36-.289.234-.578.467-.876.69-.182.136-.369.265-.555.396-.276.196-.553.389-.837.575-.201.132-.406.258-.611.385-.28.173-.562.341-.848.505a27.187 27.187 0 0 1-1.529.806c-.219.107-.437.214-.659.315-.081.037-.159.079-.24.115l.004.032-.03.012c.007.094.007.188.014.282.015.23.024.459.034.689a27.494 27.494 0 0 1 .018 1.736c-.008.342-.022.683-.043 1.024-.014.23-.027.46-.047.689-.03.349-.07.697-.113 1.044-.027.215-.05.431-.081.645-.057.385-.127.767-.2 1.149-.033.172-.059.345-.095.516a27.44 27.44 0 0 1-.396 1.636c-.018.066-.041.13-.06.196-.135.474-.28.946-.44 1.412-.063.182-.134.361-.2.542-.127.346-.256.691-.396 1.032-.084.204-.176.405-.265.608-.138.312-.279.623-.428.93a27.73 27.73 0 0 1-1.139 2.104c-.173.289-.353.573-.537.855-.124.191-.247.383-.376.572-.201.293-.412.579-.624.865-.125.167-.245.337-.373.502-.267.341-.546.674-.829 1.003-.086.1-.166.204-.253.302-.372.42-.759.829-1.159 1.227-.126.126-.261.245-.39.368-.239.229-.474.461-.722.682.464.313.938.608 1.42.886 5.583 3.224 12.087 4.08 18.315 2.412 6.227-1.668 11.431-5.662 14.655-11.245 6.653-11.525 2.691-26.314-8.834-32.969h.001a25.011 25.011 0 0 0-.856-.469c-.082.346-.18.686-.275 1.027-.041.147-.075.296-.119.442a31.058 31.058 0 0 1-.537 1.612z" style="fill:rgb(225, 91, 100);animation-play-state:paused" ></path>
<path fill="#e0e0e0" d="M53.187 39.841c.398.399.786.808 1.159 1.231a26.966 26.966 0 0 1 1.508 1.879c.141.192.287.381.423.577.439.632.86 1.277 1.248 1.948.33.572.631 1.155.917 1.743l.18.372c.27.577.522 1.16.75 1.751.039.1.073.201.11.302.203.546.389 1.098.557 1.655.03.098.062.195.091.294.176.609.327 1.226.46 1.847.012.056.03.11.041.166.237-.116.472-.235.705-.358.137-.073.277-.142.413-.217a24.5 24.5 0 0 0 1.243-.739c.013-.008.027-.015.04-.024.419-.268.828-.551 1.228-.844.123-.09.241-.186.362-.278.272-.207.543-.417.805-.635.143-.118.281-.241.421-.363.233-.203.464-.408.689-.619a23.992 23.992 0 0 0 2.054-2.185c.118-.142.237-.281.352-.426.215-.271.421-.549.624-.829.085-.117.175-.232.258-.351.281-.401.55-.81.806-1.228.043-.071.082-.145.125-.217.209-.35.412-.703.603-1.064.081-.152.154-.307.232-.461.145-.287.287-.574.42-.867.08-.176.155-.355.231-.533a22.853 22.853 0 0 0 .835-2.272c.058-.186.116-.372.17-.56.088-.31.167-.623.242-.937.042-.173.087-.345.125-.519.011-.05.018-.101.029-.152-.054-.019-.107-.043-.161-.062-.15-.053-.302-.098-.453-.148a23.949 23.949 0 0 0-.977-.302c-.18-.051-.362-.097-.543-.143a23.976 23.976 0 0 0-1.486-.333c-.299-.057-.6-.107-.9-.152-.193-.029-.386-.059-.58-.084a24.88 24.88 0 0 0-.939-.096c-.179-.015-.358-.035-.537-.047a24.63 24.63 0 0 0-1.152-.043c-.108-.002-.215-.01-.323-.01-.484-.002-.968.013-1.452.04-.167.009-.334.028-.501.041-.322.025-.643.051-.963.089-.199.023-.397.054-.595.082-.288.041-.576.085-.863.136a25.845 25.845 0 0 0-2.062.464c-.28.076-.559.16-.836.246-.193.06-.387.118-.579.183-.301.102-.598.214-.895.328-.164.063-.329.121-.492.187-.452.184-.899.38-1.34.592-.062.03-.122.065-.184.095a23.2 23.2 0 0 0-1.137.595c-.156.088-.309.183-.464.275-.21.124-.419.251-.625.382.049.046.092.096.14.142.151.152.294.307.443.456z" style="fill:rgb(224, 224, 224);animation-play-state:paused" ></path>
<path fill="#e0e0e0" d="M56.981 58.44c-.507.133-1.014.257-1.528.36-.319.064-.639.117-.961.17a28.188 28.188 0 0 1-2.37.289c-.447.034-.894.05-1.341.062-.25.007-.497.034-.748.034-.118 0-.235-.007-.353-.009-.046-.001-.091-.003-.137-.003a27.706 27.706 0 0 1-1.982-.103l-.025-.002a27.264 27.264 0 0 1-1.983-.254c-.069-.011-.137-.024-.206-.036a26.749 26.749 0 0 1-1.818-.375l-.135-.031a27.607 27.607 0 0 1-1.775-.511c-.06-.019-.121-.032-.181-.052-.018.257-.032.513-.041.769-.006.163-.017.327-.019.49-.008.479-.002.957.019 1.433l.001.056c.023.498.063.993.117 1.487.016.149.04.297.059.445.043.342.09.684.148 1.024.031.181.068.36.103.54a23.885 23.885 0 0 0 .333 1.476c.076.294.158.587.246.878.056.185.111.369.171.553.096.295.201.588.308.879.063.171.124.343.191.513.128.323.266.642.408.96.058.131.112.264.173.394.207.444.427.882.661 1.313.04.074.085.144.126.218.198.356.403.708.619 1.053.091.146.189.287.283.431.176.269.355.536.542.798.112.156.228.31.344.463a22.892 22.892 0 0 0 1.551 1.862c.132.143.264.287.4.427.226.233.46.459.696.684.127.12.25.243.38.361.039.035.081.068.12.103.041-.034.084-.066.125-.101.131-.113.257-.231.386-.346.245-.22.488-.442.723-.671.137-.134.271-.27.404-.407a25.377 25.377 0 0 0 1.026-1.114c.203-.235.4-.475.593-.717a21 21 0 0 0 .347-.441c.2-.264.392-.533.581-.805.094-.134.191-.266.281-.402.237-.355.463-.717.68-1.084.033-.056.07-.11.103-.166.248-.427.483-.862.704-1.302.061-.121.115-.245.174-.367.155-.321.306-.643.446-.97.07-.164.134-.33.201-.495.118-.292.232-.586.339-.882a26.61 26.61 0 0 0 .613-1.972c.08-.301.152-.605.22-.909.04-.179.082-.357.118-.536.067-.336.124-.674.177-1.014.024-.15.052-.299.073-.45.067-.49.122-.983.159-1.478l.004-.096c.033-.463.052-.927.058-1.393.002-.167-.004-.336-.005-.503a24.027 24.027 0 0 0-.019-.759c-.061.018-.124.03-.186.048-.239.066-.481.12-.721.183z" style="fill:rgb(224, 224, 224);animation-play-state:paused" ></path>
<path fill="#666" d="M49.438 41.645c-.223.199-.442.4-.657.607-.338.325-.663.663-.981 1.007-.193.209-.388.415-.573.63-.334.388-.648.793-.957 1.203-.144.191-.297.375-.436.571a24.37 24.37 0 0 0-1.231 1.909c-.35.606-.667 1.227-.961 1.856-.096.204-.177.414-.266.62-.187.432-.368.866-.53 1.308-.091.248-.171.5-.254.751a24.453 24.453 0 0 0-.576 2.047c-.038.161-.064.326-.099.488.187.067.371.142.56.204a23.71 23.71 0 0 0 2.188.604c.217.049.433.102.651.145.557.11 1.118.195 1.682.265.157.02.313.048.47.065a24.46 24.46 0 0 0 4.422.063c.153-.012.305-.035.458-.05a24.722 24.722 0 0 0 1.712-.22c.215-.036.428-.082.642-.124a23.426 23.426 0 0 0 2.22-.545c.194-.058.385-.13.578-.192-.036-.198-.064-.397-.105-.594-.06-.29-.125-.579-.196-.866a23.573 23.573 0 0 0-.383-1.358c-.084-.27-.164-.541-.258-.808-.17-.484-.364-.96-.565-1.434-.093-.219-.175-.442-.275-.659a24.547 24.547 0 0 0-1.038-2.021c-.35-.606-.729-1.19-1.127-1.759-.131-.187-.274-.365-.41-.548-.278-.374-.56-.745-.859-1.102-.173-.207-.354-.406-.534-.607a24.302 24.302 0 0 0-1.482-1.519c-.119-.112-.247-.216-.369-.325-.152.13-.311.254-.461.388z" style="fill:rgb(102, 102, 102);animation-play-state:paused" ></path>
<metadata xmlns:d="https://loading.io/stock/" style="animation-play-state:paused" ><d:name style="animation-play-state:paused" >venn diagram</d:name>


<d:tags style="animation-play-state:paused" >venn diagram,component,circle,join</d:tags>


<d:license style="animation-play-state:paused" >by</d:license>


<d:slug style="animation-play-state:paused" >1yobmj</d:slug></metadata></g><!-- generated by https://loading.io/ --></svg>